<svg width="17" height="16" viewBox="0 0 17 16" fill="none" xmlns="http://www.w3.org/2000/svg">
<g clip-path="url(#clip0_40_120)">
<path d="M16.2597 9.93528C15.1912 14.221 10.8505 16.8293 6.56422 15.7605C2.27972 14.692 -0.32853 10.351 0.74047 6.06553C1.80847 1.77928 6.14922 -0.829223 10.4342 0.239277C14.7202 1.30778 17.3282 5.64928 16.2597 9.93528Z" fill="#03BCE4"/>
<g style="mix-blend-mode:multiply" opacity="0.8">
<path fill-rule="evenodd" clip-rule="evenodd" d="M8.4055 4.42198C7.90144 3.93936 7.09504 3.93936 6.59097 4.42198L4.38924 6.53003C3.87025 7.02693 3.87026 7.84359 4.38924 8.34049L7.97717 11.7758C7.98165 11.7805 7.98622 11.7852 7.99086 11.7898C8.1317 11.9307 8.31811 12.0013 8.50462 12.0012C8.6921 12.0017 8.87961 11.9311 9.02116 11.7898C9.03225 11.7788 9.04289 11.7674 9.05308 11.7559L12.6117 8.34049C13.1294 7.84359 13.1294 7.02692 12.6117 6.53002L11.4212 5.38746C10.9184 4.90484 10.1139 4.90484 9.61103 5.38746L9.51251 5.48188L8.4055 4.42198ZM9.53346 7.43762C9.86221 7.12286 10.1878 6.80493 10.5161 6.48979L11.5012 7.43526L10.5161 8.38073L9.53346 7.43762ZM8.48372 6.46786L6.48985 8.38073L5.50236 7.43526L7.49824 5.52431L8.48372 6.46786ZM8.50755 8.41988L9.48929 9.36622L8.5054 10.3105L7.51914 9.36623L8.50755 8.41988Z" fill="#141319"/>
</g>
<g style="mix-blend-mode:multiply" opacity="0.4">
<circle cx="8.5" cy="8" r="6.75" stroke="#141319" stroke-width="0.5"/>
</g>
</g>
<defs>
<clipPath id="clip0_40_120">
<rect width="16" height="16" fill="white" transform="translate(0.5)"/>
</clipPath>
</defs>
</svg>
