<svg width="16" height="16" viewBox="0 0 16 16" fill="none" xmlns="http://www.w3.org/2000/svg">
<g clip-path="url(#clip0_47_1513)">
<path d="M15.7598 9.93528C14.6913 14.221 10.3506 16.8293 6.06434 15.7605C1.77984 14.692 -0.828408 10.351 0.240592 6.06553C1.30859 1.77928 5.64934 -0.829223 9.93434 0.239277C14.2203 1.30778 16.8283 5.64928 15.7598 9.93528Z" fill="#3CEAAA"/>
<g style="mix-blend-mode:multiply" opacity="0.8">
<path fill-rule="evenodd" clip-rule="evenodd" d="M7.9055 4.42202C7.40144 3.9394 6.59504 3.9394 6.09097 4.42202L3.88924 6.53007C3.37025 7.02697 3.37026 7.84364 3.88924 8.34054L7.47717 11.7758C7.48165 11.7805 7.48622 11.7852 7.49086 11.7899C7.6317 11.9307 7.81811 12.0013 8.00462 12.0012C8.1921 12.0017 8.37961 11.9311 8.52116 11.7899C8.53225 11.7788 8.54289 11.7675 8.55308 11.7559L12.1117 8.34054C12.6294 7.84364 12.6294 7.02697 12.1117 6.53007L10.9212 5.3875C10.4184 4.90488 9.61388 4.90488 9.11103 5.3875L9.01251 5.48192L7.9055 4.42202ZM9.03346 7.43766C9.36221 7.1229 9.68776 6.80498 10.0161 6.48983L11.0012 7.4353L10.0161 8.38077L9.03346 7.43766ZM7.98372 6.46791L5.98985 8.38078L5.00236 7.43531L6.99824 5.52435L7.98372 6.46791ZM8.00755 8.41992L8.98929 9.36627L8.0054 10.3106L7.01914 9.36627L8.00755 8.41992Z" fill="#141319"/>
</g>
</g>
<defs>
<clipPath id="clip0_47_1513">
<rect width="16" height="16" fill="white"/>
</clipPath>
</defs>
</svg>
