<svg width="17" height="16" viewBox="0 0 17 16" fill="none" xmlns="http://www.w3.org/2000/svg">
<g clip-path="url(#clip0_47_1429)">
<path d="M16.2596 9.93491C15.1911 14.2207 10.8503 16.8289 6.5641 15.7602C2.2796 14.6917 -0.328652 10.3507 0.740348 6.06516C1.80835 1.77891 6.1491 -0.829589 10.4341 0.238911C14.7201 1.30741 17.3281 5.64891 16.2596 9.93491Z" fill="#03BCE4"/>
<g style="mix-blend-mode:multiply" opacity="0.8">
<path fill-rule="evenodd" clip-rule="evenodd" d="M8.4055 4.42153C7.90144 3.93892 7.09504 3.93892 6.59097 4.42153L4.38924 6.52959C3.87025 7.02648 3.87026 7.84315 4.38924 8.34005L7.97717 11.7753C7.98165 11.78 7.98622 11.7847 7.99086 11.7894C8.1317 11.9302 8.31811 12.0008 8.50462 12.0007C8.6921 12.0012 8.87961 11.9306 9.02116 11.7894C9.03225 11.7783 9.04289 11.767 9.05308 11.7554L12.6117 8.34005C13.1294 7.84315 13.1294 7.02648 12.6117 6.52958L11.4212 5.38701C10.9184 4.90439 10.1139 4.9044 9.61103 5.38701L9.51251 5.48143L8.4055 4.42153ZM9.53346 7.43718C9.86221 7.12242 10.1878 6.80449 10.5161 6.48935L11.5012 7.43481L10.5161 8.38028L9.53346 7.43718ZM8.48372 6.46742L6.48985 8.38029L5.50236 7.43482L7.49824 5.52387L8.48372 6.46742ZM8.50755 8.41943L9.48929 9.36578L8.5054 10.3101L7.51914 9.36578L8.50755 8.41943Z" fill="#141319"/>
</g>
<g style="mix-blend-mode:multiply" opacity="0.4">
<circle cx="8.5" cy="8" r="6.75" stroke="#141319" stroke-width="0.5"/>
</g>
</g>
<defs>
<clipPath id="clip0_47_1429">
<rect width="16" height="16" fill="white" transform="translate(0.5)"/>
</clipPath>
</defs>
</svg>
