<svg width="16" height="16" viewBox="0 0 16 16" fill="none" xmlns="http://www.w3.org/2000/svg">
<g clip-path="url(#clip0_47_1413)">
<path d="M15.7596 9.93491C14.6911 14.2207 10.3503 16.8289 6.0641 15.7602C1.7796 14.6917 -0.828652 10.3507 0.240348 6.06516C1.30835 1.77891 5.6491 -0.829589 9.9341 0.238911C14.2201 1.30741 16.8281 5.64891 15.7596 9.93491Z" fill="#03BCE4"/>
<g style="mix-blend-mode:multiply" opacity="0.8">
<path fill-rule="evenodd" clip-rule="evenodd" d="M7.9055 4.42153C7.40144 3.93892 6.59504 3.93892 6.09097 4.42153L3.88924 6.52959C3.37025 7.02648 3.37026 7.84315 3.88924 8.34005L7.47717 11.7753C7.48165 11.78 7.48622 11.7847 7.49086 11.7894C7.6317 11.9302 7.81811 12.0008 8.00462 12.0007C8.1921 12.0012 8.37961 11.9306 8.52116 11.7894C8.53225 11.7783 8.54289 11.767 8.55308 11.7554L12.1117 8.34005C12.6294 7.84315 12.6294 7.02648 12.1117 6.52958L10.9212 5.38701C10.4184 4.90439 9.61388 4.9044 9.11103 5.38701L9.01251 5.48143L7.9055 4.42153ZM9.03346 7.43718C9.36221 7.12242 9.68776 6.80449 10.0161 6.48935L11.0012 7.43481L10.0161 8.38028L9.03346 7.43718ZM7.98372 6.46742L5.98985 8.38029L5.00236 7.43482L6.99824 5.52387L7.98372 6.46742ZM8.00755 8.41943L8.98929 9.36578L8.0054 10.3101L7.01914 9.36578L8.00755 8.41943Z" fill="#141319"/>
</g>
<g style="mix-blend-mode:multiply" opacity="0.4">
<circle cx="8" cy="8" r="6.75" stroke="#141319" stroke-width="0.5"/>
</g>
</g>
<defs>
<clipPath id="clip0_47_1413">
<rect width="16" height="16" fill="white"/>
</clipPath>
</defs>
</svg>
